<?xml version="1.0" encoding="utf-8"?>
<!-- Generator: Adobe Illustrator 19.0.0, SVG Export Plug-In . SVG Version: 6.00 Build 0)  -->
<svg version="1.1" id="Calque_1" xmlns="http://www.w3.org/2000/svg" xmlns:xlink="http://www.w3.org/1999/xlink" x="0px" y="0px"
	 viewBox="-453 254.3 52.7 52.7" style="enable-background:new -453 254.3 52.7 52.7;" xml:space="preserve">
<g id="XMLID_329_">
	<g id="XMLID_330_">
		<path id="XMLID_331_" style="fill:#3B3B3B;" d="M-426.6,255.8c-13.7,0-24.8,11.1-24.8,24.8c0,13.7,11.1,24.8,24.8,24.8
			c13.7,0,24.8-11.1,24.8-24.8C-401.8,267-413,255.8-426.6,255.8z"/>
	</g>
</g>
<path id="Dailymotion" style="fill:#FFFFFF;" d="M-422.2,268.9v8c0,0-2.1-2.9-6.1-2.2c-1.8,0.3-3.5,1-4.9,2.2c-1.1,0.9-2,2-2.6,3.3
	c-0.3,0.8-0.6,1.6-0.7,2.5c-0.4,3.3,0.8,7.2,3.7,9.2c0.8,0.6,1.8,1.2,2.8,1.4c1.8,0.5,3.8,0.5,5.6-0.2c0.5-0.2,0.9-0.5,1.4-0.8
	c0.2-0.1,1.1-0.7,1.1-0.9l0,2.1l5.3,0v-25.7L-422.2,268.9z M-426.6,288.7c-2.6,0-4.6-2.1-4.6-4.6c0-2.6,2.1-4.6,4.6-4.6
	c2.6,0,4.6,2.1,4.6,4.6S-424,288.7-426.6,288.7z"/>
</svg>
