<?xml version="1.0" encoding="utf-8"?>
<!-- Generator: Adobe Illustrator 19.0.0, SVG Export Plug-In . SVG Version: 6.00 Build 0)  -->
<svg version="1.1" id="Calque_1" xmlns="http://www.w3.org/2000/svg" xmlns:xlink="http://www.w3.org/1999/xlink" x="0px" y="0px"
	 viewBox="-453 254.3 52.7 52.7" style="enable-background:new -453 254.3 52.7 52.7;" xml:space="preserve">
<g id="XMLID_2_">
	<g id="XMLID_3_">
		<path id="XMLID_4_" style="fill:#3B3B3B;" d="M-426.6,255.8c-13.7,0-24.8,11.1-24.8,24.8c0,13.7,11.1,24.8,24.8,24.8
			c13.7,0,24.8-11.1,24.8-24.8C-401.8,267-413,255.8-426.6,255.8z"/>
	</g>
</g>
<path id="XMLID_5_" style="fill:#FFFFFF;" d="M-420.5,280.7h-4c0,6.5,0,14.4,0,14.4h-6c0,0,0-7.9,0-14.4h-2.8v-5.1h2.8v-3.3
	c0-2.4,1.1-6,6-6l4.4,0v4.9c0,0-2.7,0-3.2,0c-0.5,0-1.3,0.3-1.3,1.4v3h4.6L-420.5,280.7z"/>
</svg>
