<?xml version="1.0" encoding="utf-8"?>
<!-- Generator: Adobe Illustrator 19.0.0, SVG Export Plug-In . SVG Version: 6.00 Build 0)  -->
<svg version="1.1" id="Calque_1" xmlns="http://www.w3.org/2000/svg" xmlns:xlink="http://www.w3.org/1999/xlink" x="0px" y="0px"
	 viewBox="-453 254.3 52.7 52.7" style="enable-background:new -453 254.3 52.7 52.7;" xml:space="preserve">
<g id="XMLID_267_">
	<g id="XMLID_268_">
		<path id="XMLID_269_" style="fill:#3B3B3B;" d="M-426.6,255.8c-13.7,0-24.8,11.1-24.8,24.8c0,13.7,11.1,24.8,24.8,24.8
			c13.7,0,24.8-11.1,24.8-24.8C-401.8,267-413,255.8-426.6,255.8z"/>
	</g>
</g>
<g id="XMLID_540_">
	<g id="XMLID_541_">
		<path id="XMLID_538_" style="fill:#FFFFFF;" d="M-412.7,272c-1,0.5-2.1,0.8-3.3,0.9c1.2-0.7,2.1-1.8,2.5-3.2
			c-1.1,0.7-2.3,1.1-3.6,1.4c-1-1.1-2.5-1.8-4.2-1.8c-3.2,0-5.7,2.6-5.7,5.7c0,0.4,0.1,0.9,0.1,1.3c-4.8-0.2-9-2.5-11.8-6
			c-0.5,0.8-0.8,1.8-0.8,2.9c0,2,1,3.7,2.5,4.8c-0.9,0-1.8-0.3-2.6-0.7v0.1c0,2.8,2,5.1,4.6,5.6c-0.5,0.1-1,0.2-1.5,0.2
			c-0.4,0-0.7,0-1.1-0.1c0.7,2.3,2.8,3.9,5.3,4c-2,1.5-4.4,2.4-7.1,2.4c-0.5,0-0.9,0-1.4-0.1c2.5,1.6,5.5,2.6,8.8,2.6
			c10.5,0,16.3-8.7,16.3-16.3l0-0.7C-414.4,274.2-413.5,273.1-412.7,272z"/>
	</g>
</g>
</svg>
