<?xml version="1.0" encoding="utf-8"?>
<!-- Generator: Adobe Illustrator 19.0.0, SVG Export Plug-In . SVG Version: 6.00 Build 0)  -->
<svg version="1.1" id="Calque_1" xmlns="http://www.w3.org/2000/svg" xmlns:xlink="http://www.w3.org/1999/xlink" x="0px" y="0px"
	 viewBox="-453 254.3 52.7 52.7" style="enable-background:new -453 254.3 52.7 52.7;" xml:space="preserve">
<g id="XMLID_298_">
	<g id="XMLID_299_">
		<path id="XMLID_300_" style="fill:#3B3B3B;" d="M-426.6,255.8c-13.7,0-24.8,11.1-24.8,24.8c0,13.7,11.1,24.8,24.8,24.8
			c13.7,0,24.8-11.1,24.8-24.8C-401.8,267-413,255.8-426.6,255.8z"/>
	</g>
</g>
<g id="XMLID_594_">
	<path id="XMLID_612_" style="fill:#FFFFFF;" d="M-423.6,286.2c0-0.1,0-0.3-0.1-0.4c-0.1-0.2-0.2-0.3-0.4-0.3
		c-0.2,0-0.4,0.1-0.6,0.2c-0.1,0.1-0.1,0.1-0.1,0.1l0,4.7v0.1c0,0,0,0.1,0,0.1c0.1,0.1,0.3,0.3,0.5,0.3c0.3,0.1,0.6-0.1,0.6-0.4
		c0-0.1,0-0.2,0-0.2C-423.6,289-423.5,287.6-423.6,286.2z M-423.6,286.2c0-0.1,0-0.3-0.1-0.4c-0.1-0.2-0.2-0.3-0.4-0.3
		c-0.2,0-0.4,0.1-0.6,0.2c-0.1,0.1-0.1,0.1-0.1,0.1l0,4.7v0.1c0,0,0,0.1,0,0.1c0.1,0.1,0.3,0.3,0.5,0.3c0.3,0.1,0.6-0.1,0.6-0.4
		c0-0.1,0-0.2,0-0.2C-423.6,289-423.5,287.6-423.6,286.2z M-418.3,279.1c-5.6-0.1-11.2-0.1-16.8,0c-1.9,0-3.5,1.6-3.5,3.6v8.7
		c0,1.9,1.5,3.5,3.5,3.6c5.6,0.1,11.2,0.1,16.8,0c1.9,0,3.5-1.6,3.5-3.6v-8.7C-414.8,280.7-416.3,279.2-418.3,279.1z M-433.4,292.2
		h-1.6v-9.1h-1.7v-1.5h4.9v1.5h-1.7V292.2z M-427.6,288.4v3.8h-1.4v-0.9c-0.1,0.1-0.1,0.1-0.1,0.1c-0.3,0.3-0.7,0.6-1.1,0.8
		c-0.2,0.1-0.4,0.1-0.7,0.1c-0.3-0.1-0.5-0.2-0.6-0.5c-0.1-0.3-0.1-0.5-0.1-0.8c0-1,0-6.5,0-6.6h1.4c0,0,0,4,0,5.9
		c0,0.1,0,0.2,0,0.3c0.1,0.3,0.3,0.4,0.5,0.3c0.3-0.1,0.5-0.3,0.7-0.5c0,0,0-0.1,0-0.1v-5.8l1.4,0
		C-427.6,284.3-427.6,287.1-427.6,288.4z M-422.2,291.4c-0.2,0.6-0.6,0.9-1.2,0.9c-0.5,0-0.9-0.2-1.2-0.6c0,0-0.1-0.1-0.1-0.1v0.6
		h-1.4v-10.6h1.4c0,1.1,0,3.5,0,3.5s0.1-0.2,0.2-0.2c0.2-0.2,0.5-0.4,0.8-0.5c0.5-0.1,1.2,0,1.5,0.7c0.2,0.4,0.2,0.8,0.2,1.2
		c0,1.5,0,3,0,4.5C-422.1,290.9-422.1,291.2-422.2,291.4z M-416.9,291.1c-0.2,0.7-0.8,1.1-1.5,1.2c-0.5,0.1-0.9,0.1-1.4-0.1
		c-0.6-0.3-0.9-0.8-1.1-1.4c-0.1-0.3-0.1-0.6-0.1-0.9c0-1.2,0-2.3,0-3.5c0-0.6,0.1-1.2,0.6-1.6c0.5-0.5,1.1-0.7,1.8-0.7
		c0.2,0,0.4,0,0.6,0.1c0.7,0.2,1,0.7,1.2,1.4c0.1,0.3,0.1,0.5,0.1,0.8c0,0.6,0,2,0,2h-2.7v2c0,0.4,0.3,0.6,0.6,0.6
		c0.4,0,0.6-0.3,0.6-0.6v-1h1.5C-416.8,289.4-416.7,290.6-416.9,291.1z M-418.2,286.1c0-0.4-0.3-0.6-0.6-0.6c-0.4,0-0.6,0.3-0.6,0.6
		v1.1h1.3V286.1z M-423.7,285.8c-0.1-0.2-0.2-0.3-0.4-0.3c-0.2,0-0.4,0.1-0.6,0.2c-0.1,0.1-0.1,0.1-0.1,0.1l0,4.7v0.1
		c0,0,0,0.1,0,0.1c0.1,0.1,0.3,0.3,0.5,0.3c0.3,0.1,0.6-0.1,0.6-0.4c0-0.1,0-0.2,0-0.2c0-1.4,0-2.8,0-4.2
		C-423.6,286.1-423.6,285.9-423.7,285.8z"/>
	<path id="XMLID_611_" style="fill:#FFFFFF;" d="M-420,269l0,7.9h-1.5l0-0.8c-0.2,0.2-0.3,0.3-0.5,0.4c-0.3,0.2-0.6,0.4-0.9,0.5
		c-0.5,0.1-1-0.1-1.2-0.6c-0.1-0.2-0.1-0.4-0.1-0.6V269h1.5v6c0,0.1,0,0.2,0,0.2c0,0.2,0.2,0.4,0.5,0.3c0.3-0.1,0.5-0.3,0.7-0.5
		c0,0,0-0.1,0-0.1V269H-420z"/>
	<path id="XMLID_610_" style="fill:#FFFFFF;" d="M-432.1,270.4c-0.3-1.3-1-4.2-1-4.2h-1.7c0,0,1.3,4.2,1.8,6.1c0,0.1,0,0.1,0,0.2
		l0,4.3h1.5l0-4.3c0-0.1,0-0.1,0-0.2c0.6-1.9,1.8-6.1,1.8-6.1h-1.7C-431.1,266.2-431.8,269.1-432.1,270.4L-432.1,270.4z"/>
	<path id="XMLID_595_" style="fill:#FFFFFF;" d="M-427.4,268.8L-427.4,268.8c-1.2,0-2.1,0.9-2.1,2.1v4.1c0,1.2,0.9,2.1,2.1,2.1l0,0
		c1.2,0,2.1-0.9,2.1-2.1v-4.1C-425.4,269.8-426.3,268.8-427.4,268.8z M-426.8,275.1c0,0.3-0.3,0.6-0.6,0.6s-0.6-0.3-0.6-0.6v-4.3
		c0-0.3,0.3-0.6,0.6-0.6s0.6,0.3,0.6,0.6V275.1z"/>
</g>
</svg>
